<?xml version="1.0" encoding="UTF-8" standalone="no"?>
<!DOCTYPE svg PUBLIC "-//W3C//DTD SVG 1.1//EN" "http://www.w3.org/Graphics/SVG/1.1/DTD/svg11.dtd">
<svg width="100%" height="100%" viewBox="0 0 731 122" version="1.1" xmlns="http://www.w3.org/2000/svg" xmlns:xlink="http://www.w3.org/1999/xlink" xml:space="preserve" xmlns:serif="http://www.serif.com/" style="fill-rule:evenodd;clip-rule:evenodd;stroke-linejoin:round;stroke-miterlimit:2;">
    <g transform="matrix(1,0,0,1,-3064,0)">
        <g id="logo-full-dark-no-space" transform="matrix(0.294522,0,0,0.0345794,3064.35,0)">
            <rect x="0" y="0" width="2480.32" height="3507.87" style="fill:none;"/>
            <clipPath id="_clip1">
                <rect x="0" y="0" width="2480.32" height="3507.87"/>
            </clipPath>
            <g clip-path="url(#_clip1)">
                <g transform="matrix(1.34988,0,0,2.32481,-433.912,-2323.64)">
                    <g transform="matrix(5.62365e-16,45.4316,-9.18411,2.78188e-15,5653.01,-12175.3)">
                        <path d="M309.705,545.521L304.705,545.521L296.205,569.021L296.205,580.521L301.205,580.521L301.205,572.421L313.205,572.421L313.205,580.521L318.205,580.521L318.205,569.021L309.705,545.521ZM307.155,553.421L307.255,553.421L312.305,567.421L302.105,567.421L307.155,553.421Z" style="fill-rule:nonzero;"/>
                    </g>
                    <g transform="matrix(7.08488,0,0,35.0472,-1370.86,-18119.5)">
                        <rect x="292.705" y="582.171" width="29" height="5" style="fill-rule:nonzero;"/>
                        <path d="M348.205,557.521L348.205,554.521C348.205,549.521 344.205,545.521 339.205,545.521L331.205,545.521L326.205,545.521L326.205,580.521L331.205,580.521L331.205,566.521L336.355,566.521L342.705,580.521L348.205,580.521L341.655,566.171C345.455,565.121 348.205,561.671 348.205,557.521ZM343.205,557.521C343.205,559.771 341.455,561.521 339.205,561.521L331.205,561.521L331.205,550.521L339.205,550.521C341.455,550.521 343.205,552.271 343.205,554.521L343.205,557.521Z" style="fill-rule:nonzero;"/>
                        <path d="M373.205,545.521L367.205,558.571L361.205,545.521L356.205,545.521L356.205,580.521L361.205,580.521L361.205,556.521L365.855,566.421L368.555,566.421L373.205,556.521L373.205,580.521L378.205,580.521L378.205,545.521L373.205,545.521Z" style="fill-rule:nonzero;"/>
                        <path d="M399.705,545.521L394.705,545.521L386.205,569.021L386.205,580.521L391.205,580.521L391.205,572.421L403.205,572.421L403.205,580.521L408.205,580.521L408.205,569.021L399.705,545.521ZM397.155,553.421L397.255,553.421L402.305,567.421L392.105,567.421L397.155,553.421Z" style="fill-rule:nonzero;"/>
                        <path d="M433.205,545.521L433.205,572.121L423.455,545.521L416.205,545.521L416.205,580.521L421.205,580.521L421.205,553.921L430.955,580.521L438.205,580.521L438.205,545.521L433.205,545.521Z" style="fill-rule:nonzero;"/>
                        <path d="M459.205,545.521L451.205,545.521L446.205,545.521L446.205,580.521L459.205,580.521C464.155,580.521 468.205,576.421 468.205,571.471L468.205,554.521C468.205,549.521 464.155,545.521 459.205,545.521ZM463.205,571.471C463.205,573.671 461.405,575.471 459.205,575.471L451.205,575.471L451.205,550.521L459.205,550.521C461.455,550.521 463.205,552.321 463.205,554.521L463.205,571.471Z" style="fill-rule:nonzero;"/>
                        <path d="M489.205,580.521C494.205,580.521 498.205,576.421 498.205,571.471L498.205,554.521C498.205,549.521 494.205,545.521 489.205,545.521L485.205,545.521C480.255,545.521 476.205,549.521 476.205,554.521L476.205,571.471C476.205,576.421 480.255,580.521 485.205,580.521L489.205,580.521ZM489.205,575.471L485.205,575.471C483.005,575.471 481.205,573.671 481.205,571.471L481.205,554.521C481.205,552.321 482.955,550.521 485.205,550.521L489.205,550.521C491.455,550.521 493.205,552.271 493.205,554.521L493.205,571.471C493.205,573.671 491.405,575.471 489.205,575.471Z" style="fill-rule:nonzero;"/>
                    </g>
                    <g transform="matrix(9.18411,0,0,45.4316,-2045.35,-24167.7)">
                        <rect x="292.705" y="582.171" width="29" height="5" style="fill-rule:nonzero;"/>
                    </g>
                </g>
            </g>
        </g>
    </g>
</svg>
