<?xml version="1.0" encoding="UTF-8" standalone="no"?>
<!DOCTYPE svg PUBLIC "-//W3C//DTD SVG 1.1//EN" "http://www.w3.org/Graphics/SVG/1.1/DTD/svg11.dtd">
<svg width="100%" height="100%" viewBox="0 0 308 131" version="1.1" xmlns="http://www.w3.org/2000/svg" xmlns:xlink="http://www.w3.org/1999/xlink" xml:space="preserve" xmlns:serif="http://www.serif.com/" style="fill-rule:evenodd;clip-rule:evenodd;stroke-linejoin:round;stroke-miterlimit:1.41421;">
    <rect id="Artboard1" x="0" y="0" width="308" height="131" style="fill:none;"/>
    <clipPath id="_clip1">
        <rect id="Artboard11" serif:id="Artboard1" x="0" y="0" width="308" height="131"/>
    </clipPath>
    <g clip-path="url(#_clip1)">
        <g id="logo-dark-no-space" transform="matrix(0.123856,0,0,0.0369457,0.75,0.566)">
            <g>
                <g transform="matrix(2.37305e-15,129.921,-38.7549,7.95538e-15,22498,-38483.4)">
                    <path d="M309.705,545.521L304.705,545.521L296.205,569.021L296.205,580.521L301.205,580.521L301.205,572.421L313.205,572.421L313.205,580.521L318.205,580.521L318.205,569.021L309.705,545.521ZM307.155,553.421L307.255,553.421L312.305,567.421L302.105,567.421L307.155,553.421Z" style="fill-rule:nonzero;"/>
                </g>
                <g transform="matrix(38.7549,0,0,129.921,-9987.35,-72778.1)">
                    <rect x="292.705" y="582.171" width="29" height="5"/>
                </g>
            </g>
        </g>
    </g>
</svg>
